# xmcd
#
# Track frame offsets:
#	150
#	6861
#	30223
#	45152
#	64031
#	84270
#	97727
#	123601
#	154771
#	183921
#	212233
#	257549
#	279030
#
# Disc length: 4015 seconds
#
# Revision: 1
# Processed by: cddbd v1.5.1PL2 Copyright (c) Steve Scherf et al.
# Submitted via: EasyCDDAExtractor 9.0.0.1
#
DISCID=910fad0d
DTITLE=Guns and Roses - Hammersmith Carling Apollo London 07-06-06 Disc 1
DYEAR=2006
DGENRE=Hard Rock
TTITLE0=Intro
TTITLE1=Welcome To The Jungle
TTITLE2=It's So Easy
TTITLE3=Mr Brownstone
TTITLE4=Live And Let Die
TTITLE5=Guitar Solo Robin Fink
TTITLE6=Sweet Child O' Mine
TTITLE7=Madagascar
TTITLE8=Better
TTITLE9=You Could Be Mine
TTITLE10=Knockin On Heaven's Door
TTITLE11=Jam - Dizzy Piano Solo
TTITLE12=The Blues
EXTD=
EXTT0=
EXTT1=
EXTT2=
EXTT3=
EXTT4=
EXTT5=
EXTT6=
EXTT7=
EXTT8=
EXTT9=
EXTT10=
EXTT11=
EXTT12=
PLAYORDER=
